<svg width="25" height="25" viewBox="0 0 25 25" fill="none" xmlns="http://www.w3.org/2000/svg">
<g clip-path="url(#clip0_64_170)">
<path d="M4.6875 0.78125C4.6875 0.57405 4.60519 0.375336 4.45868 0.228823C4.31217 0.08231 4.11345 0 3.90625 0C3.69905 0 3.50034 0.08231 3.35383 0.228823C3.20731 0.375336 3.125 0.57405 3.125 0.78125C3.125 2.34687 4.19688 3.14844 4.9375 3.70312L5 3.75C5.82188 4.36563 6.25 4.73438 6.25 5.46875C6.25 5.67595 6.33231 5.87466 6.47883 6.02118C6.62534 6.16769 6.82405 6.25 7.03125 6.25C7.23845 6.25 7.43717 6.16769 7.58368 6.02118C7.73019 5.87466 7.8125 5.67595 7.8125 5.46875C7.8125 3.90313 6.74063 3.10156 6 2.54687L5.9375 2.5C5.11563 1.88438 4.6875 1.51562 4.6875 0.78125ZM9.375 0.78125C9.375 0.57405 9.29269 0.375336 9.14618 0.228823C8.99967 0.08231 8.80095 0 8.59375 0C8.38655 0 8.18784 0.08231 8.04133 0.228823C7.89481 0.375336 7.8125 0.57405 7.8125 0.78125C7.8125 2.34687 8.88438 3.14844 9.625 3.70312L9.6875 3.75C10.5094 4.36563 10.9375 4.73438 10.9375 5.46875C10.9375 5.67595 11.0198 5.87466 11.1663 6.02118C11.3128 6.16769 11.5116 6.25 11.7188 6.25C11.926 6.25 12.1247 6.16769 12.2712 6.02118C12.4177 5.87466 12.5 5.67595 12.5 5.46875C12.5 3.90313 11.4281 3.10156 10.6875 2.54687L10.625 2.5C9.80313 1.88438 9.375 1.51562 9.375 0.78125ZM13.2813 0C13.4885 0 13.6872 0.08231 13.8337 0.228823C13.9802 0.375336 14.0625 0.57405 14.0625 0.78125C14.0625 1.51562 14.4906 1.88438 15.3125 2.5L15.375 2.54687C16.1156 3.10156 17.1875 3.90313 17.1875 5.46875C17.1875 5.67595 17.1052 5.87466 16.9587 6.02118C16.8122 6.16769 16.6135 6.25 16.4063 6.25C16.1991 6.25 16.0003 6.16769 15.8538 6.02118C15.7073 5.87466 15.625 5.67595 15.625 5.46875C15.625 4.73438 15.1969 4.36563 14.375 3.75L14.3125 3.70312C13.5719 3.14844 12.5 2.34687 12.5 0.78125C12.5 0.57405 12.5823 0.375336 12.7288 0.228823C12.8753 0.08231 13.0741 0 13.2813 0ZM3.125 9.20469C3.125 8.4375 3.74844 7.8125 4.51719 7.8125H18.9203C19.6891 7.8125 20.3125 8.43594 20.3125 9.20469V9.375H21.0938C22.1298 9.375 23.1233 9.78655 23.8559 10.5191C24.5885 11.2517 25 12.2452 25 13.2812C25 14.3173 24.5885 15.3108 23.8559 16.0434C23.1233 16.7759 22.1298 17.1875 21.0938 17.1875H19.9891C19.425 19.1851 18.1569 20.911 16.4193 22.0463C14.6816 23.1817 12.5917 23.6497 10.5358 23.364C8.47983 23.0782 6.59679 22.058 5.23457 20.4919C3.87234 18.9257 3.123 16.9194 3.125 14.8438V9.20469ZM20.2781 15.625H21.0938C21.7154 15.625 22.3115 15.3781 22.751 14.9385C23.1906 14.499 23.4375 13.9029 23.4375 13.2812C23.4375 12.6596 23.1906 12.0635 22.751 11.624C22.3115 11.1844 21.7154 10.9375 21.0938 10.9375H20.3125V14.8438C20.3125 15.1073 20.301 15.3677 20.2781 15.625Z" fill="#14AE5C"/>
</g>
<defs>
<clipPath id="clip0_64_170">
<rect width="25" height="25" fill="white"/>
</clipPath>
</defs>
</svg>
