<svg width="24" height="24" viewBox="0 0 24 24" fill="none" xmlns="http://www.w3.org/2000/svg">
<path d="M22.0874 17.8125H6.8999C6.8999 15.0375 9.0374 10.8 9.0374 10.8C8.9999 10.6125 9.2249 10.35 9.4499 10.35L14.2124 8.13751C14.3249 7.98751 14.6999 8.02501 14.7749 8.13751L19.5374 10.35C19.7624 10.35 19.9874 10.6125 19.9499 10.8C19.9499 10.8 22.0874 15.075 22.0874 17.8125Z" fill="#7D593E"/>
<path d="M13.3877 21.6001C13.3877 21.6001 10.8377 22.0501 10.2377 21.6001C9.41274 20.9626 10.7252 18.0001 11.5502 17.3626C11.5502 17.3626 13.2752 17.2126 13.8377 17.7376C13.8002 17.7001 12.9377 20.1376 13.3877 21.6001ZM18.1127 21.7876C18.1127 21.7876 16.0877 21.6751 15.7127 21.1876C15.1877 20.5501 16.6502 18.5251 17.4002 18.1876C17.4002 18.1876 18.7502 18.4126 19.0877 18.9001C19.0877 18.9001 18.0377 20.5876 18.1127 21.7876Z" fill="#64892F"/>
<path d="M2.1377 7.53741C2.1377 7.53741 5.3252 4.34991 5.9627 6.89991C6.0002 6.86241 3.2252 10.1249 2.1377 7.53741Z" fill="#4B662B"/>
<path d="M9.22498 3.22508C7.01248 0.825076 -1.80002 3.18758 1.46248 6.93758C1.46248 6.93758 2.88748 6.18758 5.54998 6.22508C3.44998 8.10008 2.13748 7.50008 2.13748 7.50008C2.13748 8.70008 2.69998 9.67508 4.91248 9.67508C7.64998 9.67508 4.68748 17.1001 7.12498 17.1001C8.54998 17.1001 8.84998 11.2126 8.96248 10.8751C9.52498 9.00008 10.6875 4.83758 9.22498 3.22508ZM22.8375 16.6501C23.2875 17.2501 23.325 18.7501 23.175 19.0876C23.025 19.3876 22.8 18.6751 22.5 18.0001C21.975 16.8376 20.9625 16.6126 21.675 16.1626C21.975 15.9376 22.6125 16.3501 22.8375 16.6501Z" fill="#83BF4F"/>
<path d="M14.475 10.8376L10.95 12.3001L10.275 16.0876H18.7125L18.0375 12.3001L14.475 10.8376ZM19.5375 10.3501C18.1875 9.0001 16.6125 8.1751 14.775 8.1376V10.4251L18.225 11.7376L19.5375 10.3501ZM14.2125 10.3876V8.1001C12.375 8.1376 10.8 8.9626 9.45001 10.3126L10.7625 11.7001L14.2125 10.3876ZM19.95 10.8001L18.4875 12.3001L19.2375 16.0876H22.425C22.05 14.0251 21.15 12.1876 19.95 10.8001ZM10.5 12.3001L9.03751 10.8001C8.43751 11.4751 7.91251 12.6376 7.12501 12.9001C6.22501 13.2001 6.75001 16.1251 9.75001 16.1251L10.5 12.3001Z" fill="#C1875D"/>
<path d="M6.5625 16.9126H22.425C22.425 19.0126 20.625 19.8376 14.475 19.8376C8.325 19.8376 6.5625 19.0126 6.5625 16.9126Z" fill="#FFD93B"/>
<path d="M11.2873 16.9126C11.3248 17.2126 11.3998 17.4751 11.4748 17.7376C11.5498 18.0001 11.6623 18.2626 11.8123 18.4876C11.9623 18.7126 12.1123 18.9376 12.2998 19.1626C12.4873 19.3876 12.7123 19.5751 12.8998 19.8001C12.5998 19.7251 12.3373 19.5376 12.0748 19.3501C11.8498 19.1626 11.6248 18.9001 11.4748 18.6376C11.3248 18.3751 11.2123 18.0751 11.1748 17.7751C11.1748 17.5126 11.1748 17.2126 11.2873 16.9126ZM17.6998 16.9126C17.8123 17.1751 17.8123 17.5126 17.7748 17.8126C17.7373 18.1126 17.6248 18.4126 17.4748 18.6751C17.3248 18.9376 17.0998 19.2001 16.8748 19.3876C16.6498 19.5751 16.3498 19.7251 16.0498 19.8376C16.2748 19.6126 16.4623 19.4251 16.6498 19.2001C16.8373 18.9751 16.9873 18.7501 17.1373 18.5251C17.2873 18.3001 17.3998 18.0376 17.4748 17.7751C17.5873 17.4751 17.6623 17.2126 17.6998 16.9126Z" fill="#AF921B"/>
<path d="M5.5126 5.25005C6.05108 5.25005 6.4876 4.81353 6.4876 4.27505C6.4876 3.73657 6.05108 3.30005 5.5126 3.30005C4.97412 3.30005 4.5376 3.73657 4.5376 4.27505C4.5376 4.81353 4.97412 5.25005 5.5126 5.25005Z" fill="#3E4347"/>
<path d="M1.7249 4.5001L1.4624 4.6126L1.5749 4.3126L1.8374 4.1626L1.7249 4.5001Z" fill="#4B662B"/>
<path d="M11.1752 22.8376C11.1752 22.8376 7.83772 23.5501 7.01272 22.8376C5.92522 21.8626 7.65022 17.3251 8.73772 16.3501C8.73772 16.3501 11.0252 16.1251 11.7752 16.9126C11.7377 16.9126 10.6127 20.6251 11.1752 22.8376Z" fill="#83BF4F"/>
<path d="M8.0623 22.8375C7.6498 21.7875 6.97481 21.075 6.78731 21.075C6.56231 21.075 6.1123 21.7125 6.1123 22.95C6.1498 23.3625 8.2873 23.3625 8.0623 22.8375Z" fill="#6EA03F"/>
<path d="M23.0627 19.5001C23.0627 19.5001 21.3377 22.4626 20.4752 22.4251C19.3127 22.3501 16.8002 19.6126 17.7752 16.5001C17.7752 16.5001 19.8752 16.2001 20.7377 16.3501C20.7377 16.3126 20.1377 18.9751 23.0627 19.5001Z" fill="#83BF4F"/>
<path d="M21.2251 21.8251C20.4751 21.3376 19.6876 21.1876 19.5751 21.3001C19.4251 21.4126 19.3876 22.0876 19.9501 22.9501C20.1376 23.2126 21.6001 22.0876 21.2251 21.8251Z" fill="#6EA03F"/>
</svg>
